#N canvas 659 201 450 300 10;
#X obj 18 46 osc~ 440;
#X obj 18 150 dac~;
#X obj 18 128 e_autocompress 10 10;
#X obj 18 98 *~;
#X obj 36 77 hsl 128 15 0.001 2 0 0 empty empty empty -2 -8 0 10 -262144
-1 -1 0 1;
#X floatatom 54 104 5 0 0 0 - - -;
#X text 17 4 horrifically \, keep the power of the sound constant by
adjusting amplitude to compensate.;
#X connect 0 0 3 0;
#X connect 2 0 1 0;
#X connect 2 0 1 1;
#X connect 3 0 2 0;
#X connect 4 0 3 1;
#X connect 4 0 5 0;
