#N canvas 548 329 414 575 10;
#X obj 36 41 env~;
#X obj 36 64 dbtorms;
#X obj 35 351 line~;
#X obj 17 379 *~;
#X obj 17 401 outlet~;
#X obj 18 18 inlet~;
#X obj 35 185 /;
#X msg 35 163 1;
#X obj 36 85 t f f;
#X obj 35 141 t b f f;
#X obj 35 327 pack f 10;
#X obj 86 194 sel 0 1;
#X msg 140 194 set \$1;
#X obj 100 401 outlet~;
#X msg 86 231 10;
#X obj 86 172 < 1;
#X msg 141 140 set \$1;
#X msg 118 231 10;
#X obj 35 261 expr tanh($f1);
#X obj 35 305 / 1;
#X obj 35 284 * 40;
#X obj 35 237 / 40;
#X obj 36 109 moses 0.05;
#X obj 141 118 u_default \$2 10;
#X obj 140 172 u_default \$1 10;
#X text 75 15 args: rise-time fall-time;
#X connect 0 0 1 0;
#X connect 1 0 8 0;
#X connect 2 0 3 1;
#X connect 2 0 13 0;
#X connect 3 0 4 0;
#X connect 5 0 3 0;
#X connect 5 0 0 0;
#X connect 6 0 21 0;
#X connect 7 0 6 0;
#X connect 8 0 22 0;
#X connect 9 0 7 0;
#X connect 9 1 6 1;
#X connect 9 2 15 0;
#X connect 10 0 2 0;
#X connect 11 0 14 0;
#X connect 11 1 17 0;
#X connect 12 0 17 0;
#X connect 14 0 10 1;
#X connect 15 0 11 0;
#X connect 16 0 14 0;
#X connect 17 0 10 1;
#X connect 18 0 20 0;
#X connect 19 0 10 0;
#X connect 20 0 19 0;
#X connect 21 0 18 0;
#X connect 22 0 9 0;
#X connect 22 1 9 0;
#X connect 23 0 16 0;
#X connect 24 0 12 0;
