#N canvas 439 203 450 300 10;
#X obj 15 45 inlet~;
#X obj 15 179 outlet~;
#X text 11 14 rebirth style "foldover" distortion. sounds right?;
#X obj 178 47 inlet~;
#X obj 14 115 expr~ sin($v1 * max($v2 \, 1));
#X connect 0 0 4 0;
#X connect 3 0 4 1;
#X connect 4 0 1 0;
