#N canvas 745 348 450 300 10;
#X obj 9 13 inlet;
#X obj 28 112 tabwrite \$0/ring;
#X obj 48 56 f;
#X obj 78 56 + 1;
#X obj 48 78 mod \$1;
#X obj 9 35 t b f b;
#X obj 297 15 array define \$0/ring \$1;
#X obj 9 138 array sum \$0/ring;
#X obj 9 160 / \$1;
#X obj 9 182 outlet;
#X connect 0 0 5 0;
#X connect 2 0 3 0;
#X connect 2 0 4 0;
#X connect 3 0 2 1;
#X connect 4 0 1 1;
#X connect 5 0 7 0;
#X connect 5 1 1 0;
#X connect 5 2 2 0;
#X connect 7 0 8 0;
#X connect 8 0 9 0;
