#N canvas 260 290 450 300 10;
#X obj 21 72 u_average 16;
#X floatatom 21 53 5 0 0 0 - - -, f 5;
#X floatatom 21 94 5 0 0 0 - - -, f 5;
#X text 17 17 calculate the x-point moving average of incoming floats.
;
#X obj 21 113 int;
#X floatatom 21 135 5 0 0 0 - - -, f 5;
#X connect 0 0 2 0;
#X connect 1 0 0 0;
#X connect 2 0 4 0;
#X connect 4 0 5 0;
