#N canvas 542 187 450 300 10;
#X msg 60 24 bang;
#X obj 60 103 print;
#X msg 157 56 7;
#X msg 305 24 \; global-seed 1024 \;;
#X obj 60 81 u_fractal-melody 5 16 global-seed;
#X msg 230 42 16;
#X msg 267 55 32;
#X text 57 3 create stochastic fractal melodies;
#X msg 132 32 4;
#X connect 0 0 4 0;
#X connect 2 0 4 1;
#X connect 4 0 1 0;
#X connect 5 0 4 2;
#X connect 6 0 4 2;
#X connect 8 0 4 1;
