#N canvas 141 48 782 616 10;
#X obj 13 67 inlet newnotes;
#X obj 12 533 outlet;
#X text 138 201 for 16 beats play through the four notes;
#X obj 36 203 until;
#X obj 36 227 f;
#X obj 68 227 + 1;
#X obj 37 425 int;
#X msg 86 184 0;
#X obj 208 317 + 1;
#X obj 209 295 t f f;
#X obj 12 512 list;
#X obj 209 231 t b b b;
#X obj 311 302 f;
#X obj 329 276 + 1;
#X obj 311 329 sel;
#X msg 232 253 0;
#X obj 37 487 list append;
#X obj 126 488 t l;
#X obj 37 395 / 1;
#X text 212 215 this block makes repeating chunks;
#X obj 208 382 sel 0 1;
#X obj 36 121 t b b b b b b;
#X msg 124 163 1;
#X obj 207 338 t b f;
#X obj 208 404 f;
#X obj 37 445 mod 4;
#X obj 36 346 +;
#X obj 36 247 t f b b;
#X obj 13 87 t b b;
#X obj 277 68 inlet sequence-length;
#X obj 128 89 u_default \$1 4;
#X obj 277 90 u_default \$2 16;
#X obj 128 67 inlet number-of-notes;
#X obj 277 112 t f f;
#X obj 36 162 16;
#X text 22 19 args: number-of-notes sequence-length seed-receiver-name
;
#X obj 208 361 u_seededrandom 2 \$3;
#X obj 209 275 u_seededrandom 3 \$3;
#X obj 55 286 u_seededrandom 16 \$3;
#X obj 128 111 + 1;
#X connect 0 0 28 0;
#X connect 3 0 4 0;
#X connect 4 0 5 0;
#X connect 4 0 27 0;
#X connect 5 0 4 1;
#X connect 6 0 25 0;
#X connect 7 0 4 1;
#X connect 8 0 23 0;
#X connect 9 0 8 0;
#X connect 9 1 14 1;
#X connect 10 0 1 0;
#X connect 11 0 37 0;
#X connect 11 1 15 0;
#X connect 12 0 13 0;
#X connect 12 0 14 0;
#X connect 13 0 12 1;
#X connect 14 0 11 0;
#X connect 15 0 12 1;
#X connect 16 0 17 0;
#X connect 16 0 10 1;
#X connect 17 0 16 1;
#X connect 18 0 6 0;
#X connect 20 0 24 0;
#X connect 21 0 34 0;
#X connect 21 1 7 0;
#X connect 21 2 16 1;
#X connect 21 3 11 0;
#X connect 21 5 22 0;
#X connect 22 0 18 1;
#X connect 23 0 36 0;
#X connect 23 1 24 1;
#X connect 24 0 18 1;
#X connect 25 0 16 0;
#X connect 26 0 18 0;
#X connect 27 0 26 0;
#X connect 27 1 38 0;
#X connect 27 2 12 0;
#X connect 28 0 10 0;
#X connect 28 1 21 0;
#X connect 29 0 31 0;
#X connect 30 0 39 0;
#X connect 31 0 33 0;
#X connect 32 0 30 0;
#X connect 33 0 34 1;
#X connect 33 1 38 1;
#X connect 34 0 3 0;
#X connect 36 0 20 0;
#X connect 37 0 9 0;
#X connect 38 0 26 1;
#X connect 39 0 25 1;
