#N canvas 977 460 450 300 10;
#X obj 213 190 loadbang;
#X obj 213 212 \$0;
#X obj 16 118 value \$1/unique-seed;
#X obj 103 86 + 1;
#X obj 16 15 loadbang;
#X obj 16 89 t b f;
#X obj 16 184 spigot 1;
#X msg 61 162 0;
#X obj 16 139 t b f;
#X obj 16 37 t b b;
#X obj 16 67 0;
#X obj 213 234 outlet;
#X obj 16 208 outlet;
#X connect 0 0 1 0;
#X connect 1 0 11 0;
#X connect 2 0 3 0;
#X connect 2 0 8 0;
#X connect 3 0 10 1;
#X connect 4 0 9 0;
#X connect 5 0 2 0;
#X connect 5 1 2 0;
#X connect 6 0 12 0;
#X connect 7 0 6 1;
#X connect 8 0 7 0;
#X connect 8 1 6 0;
#X connect 9 0 10 0;
#X connect 9 1 2 0;
#X connect 10 0 5 0;
