#N canvas 118 170 450 320 10;
#X obj 53 66 hsl 128 15 0 127 0 0 empty empty empty -2 -8 0 10 -262144
-1 -1 12700 1;
#X floatatom 143 273 10 0 0 3 milliseconds - -, f 10;
#X obj 50 250 u_magic-freq 145;
#X msg 64 88 bpm 180;
#X msg 77 109 bpm 145;
#X msg 85 144 notes 0 3 5 7;
#X floatatom 50 272 7 0 0 3 Hz - -, f 7;
#X msg 95 222 octave \$1;
#X obj 95 202 nbx 5 14 -4 4 0 1 empty empty empty 0 -8 0 10 -262144
-1 -1 -2 256;
#X msg 99 169 notes 0 1 2 3 4 5 6 7 8 9 10 11;
#X text 179 146 <- lock pitches to a particular scale.;
#X text 167 202 <- shift the octave down (more rhythmic) or up (more
tonal)., f 41;
#X text 6 4 Convert a midi control range to a frequency \, musically.
Below 50Hz lock frequencies to divisions of the BPM (rhythmic) and
above 50Hz lock frequencies to note pitches (melodic) \, optionally
locked to a particlar scale., f 71;
#X connect 0 0 2 0;
#X connect 2 0 6 0;
#X connect 2 1 1 0;
#X connect 3 0 2 0;
#X connect 4 0 2 0;
#X connect 5 0 2 0;
#X connect 7 0 2 0;
#X connect 8 0 7 0;
#X connect 9 0 2 0;
