#N canvas 445 198 450 383 10;
#X obj 150 310 print;
#X msg 319 105 each;
#X msg 20 240 prefix 123;
#X msg 19 64 set /test this is my list of 8 different elements;
#X text 17 9 hash map mimic. __NULL is a reserved key. Use the map-api
object to interface with a particular instance.;
#X msg 49 91 set /test some other list to replace it;
#X msg 76 118 set /test/two more data to store;
#X msg 128 148 get /test;
#X msg 139 171 get /test/two;
#X msg 193 245 get 543543;
#X msg 158 195 del /test;
#X msg 170 221 del /test/two;
#X msg 293 163 clear;
#X msg 293 186 read my-map.txt;
#X msg 293 209 write my-map.txt;
#X text 19 218 ID a request;
#X msg 21 263 prefix;
#X obj 319 291 s mymap/in;
#X msg 319 269 each;
#X obj 319 313 r mymap/out;
#X text 316 248 native send/receive;
#X obj 150 288 u_map mymap;
#X connect 1 0 21 0;
#X connect 2 0 21 0;
#X connect 3 0 21 0;
#X connect 5 0 21 0;
#X connect 6 0 21 0;
#X connect 7 0 21 0;
#X connect 8 0 21 0;
#X connect 9 0 21 0;
#X connect 10 0 21 0;
#X connect 11 0 21 0;
#X connect 12 0 21 0;
#X connect 13 0 21 0;
#X connect 14 0 21 0;
#X connect 16 0 21 0;
#X connect 18 0 17 0;
#X connect 21 0 0 0;
