#N canvas 735 405 660 328 10;
#X msg 302 85 get /test/one;
#X msg 26 82 set /test/one hello i am an entry;
#X msg 16 243 get /test/two;
#X msg 15 176 set /test/two 120 zing boom;
#X msg 494 85 del /test/one;
#X obj 302 131 print /test/one;
#X msg 514 250 each;
#X obj 514 294 print each;
#X obj 336 227 until;
#X obj 336 249 f;
#X obj 366 249 + 1;
#X msg 336 204 1000;
#X msg 336 271 set hello/\$1 \$1;
#X obj 26 104 u_map-api \$0/test;
#X obj 302 109 u_map-api \$0/test;
#X obj 494 107 u_map-api \$0/test;
#X obj 15 198 u_map-api \$0/test;
#X obj 560 13 u_map \$0/test;
#X obj 16 266 u_map-api \$0/test;
#X obj 514 272 u_map-api \$0/test;
#X obj 336 293 u_map-api \$0/test;
#X text 335 181 make lots of entries;
#X text 513 216 loop through entries;
#X obj 16 288 print /test/two;
#X text 25 62 add an entry to the map;
#X text 9 10 Remote API style access to a named u_map hash-map mimic.
;
#X text 444 12 data container ->;
#X text 298 63 get by key name;
#X text 493 63 delete by key name;
#X connect 0 0 14 0;
#X connect 1 0 13 0;
#X connect 2 0 18 0;
#X connect 3 0 16 0;
#X connect 4 0 15 0;
#X connect 6 0 19 0;
#X connect 8 0 9 0;
#X connect 9 0 10 0;
#X connect 9 0 12 0;
#X connect 10 0 9 1;
#X connect 11 0 8 0;
#X connect 12 0 20 0;
#X connect 14 0 5 0;
#X connect 18 0 23 0;
#X connect 19 0 7 0;
