#N canvas 428 173 450 513 10;
#X obj 10 15 inlet;
#X obj 316 480 outlet;
#X obj 271 252 mtof;
#X obj 24 113 loadbang;
#X obj 24 157 \$1;
#X obj 24 179 sel 0;
#X obj 10 210 180;
#X text 332 274 <- near threshold of human bass hearing \, frequency
quantized to beat instead of note., f 17;
#X obj 10 232 expr (60 / $f1);
#X obj 10 333 expr $f1 / $f2;
#X floatatom 10 376 5 0 0 0 - - -, f 5;
#X obj 271 274 moses 50;
#X obj 10 254 t f f;
#X obj 10 396 expr $f1 * $f2;
#X obj 10 354 expr pow(2 \, int((log($f1) / log(2)) + 0));
#X obj 10 37 route bpm notes octave;
#X obj 10 484 outlet;
#X obj 316 455 expr 1000 / $f1;
#X obj 96 88 * 12;
#X obj 166 179 + -24;
#N canvas 772 287 458 317 note-lookup 0;
#X obj 211 11 loadbang;
#X msg 211 33 0 1 2 3 4 5 6 7 8 9 10 11;
#X obj 10 9 inlet;
#X obj 10 271 outlet;
#X obj 166 11 inlet;
#X obj 90 85 list length;
#X obj 10 31 t f f;
#X obj 57 85 / 12;
#X obj 57 107 * 12;
#X obj 57 129 int;
#X obj 10 249 +;
#X obj 10 63 / 12;
#X obj 10 85 int;
#X obj 166 61 t a a;
#X obj 57 174 list;
#X obj 57 151 t b f;
#X obj 57 195 list split 0;
#X obj 91 217 list split 1;
#X obj 10 107 * 12;
#X obj 57 63 mod 12;
#X connect 0 0 1 0;
#X connect 1 0 13 0;
#X connect 2 0 6 0;
#X connect 4 0 13 0;
#X connect 5 0 8 1;
#X connect 6 0 11 0;
#X connect 6 1 19 0;
#X connect 7 0 8 0;
#X connect 8 0 9 0;
#X connect 9 0 15 0;
#X connect 10 0 3 0;
#X connect 11 0 12 0;
#X connect 12 0 18 0;
#X connect 13 0 5 0;
#X connect 13 1 14 1;
#X connect 14 0 16 0;
#X connect 15 0 14 0;
#X connect 15 1 16 1;
#X connect 16 1 17 0;
#X connect 17 0 10 1;
#X connect 18 0 10 0;
#X connect 19 0 7 0;
#X restore 166 131 pd note-lookup;
#X obj 96 110 t b f;
#X obj 96 179 + -24;
#X obj 116 252 mtof;
#X obj 116 274 moses 50;
#X obj 139 110 t f f;
#X obj 139 88 clip 0 127;
#X obj 24 88 s \$0/notes;
#X obj 247 87 r \$0/notes;
#N canvas 2 48 450 310 mod-12 1;
#X obj 11 10 inlet;
#X obj 11 271 outlet;
#X obj 38 84 list split 1;
#X obj 119 84 t l;
#X obj 38 226 list append;
#X obj 115 226 t l;
#X obj 38 54 t a b;
#X obj 11 32 t b a;
#X obj 11 250 list;
#X obj 38 128 list trim;
#X obj 38 106 list split 1;
#X obj 38 153 * 100;
#X obj 38 175 % 1200;
#X obj 38 197 / 100;
#X text 93 155 <- factor in awkward tunings;
#X text 97 173 <- effective modulus 12;
#X connect 0 0 7 0;
#X connect 2 0 10 0;
#X connect 2 1 3 0;
#X connect 3 0 2 0;
#X connect 4 0 5 0;
#X connect 4 0 8 1;
#X connect 5 0 4 1;
#X connect 6 0 2 0;
#X connect 6 1 4 1;
#X connect 7 0 8 0;
#X connect 7 1 6 0;
#X connect 8 0 1 0;
#X connect 9 0 11 0;
#X connect 10 0 9 0;
#X connect 11 0 12 0;
#X connect 12 0 13 0;
#X connect 13 0 4 0;
#X restore 247 109 pd mod-12;
#X connect 0 0 15 0;
#X connect 2 0 11 0;
#X connect 3 0 4 0;
#X connect 4 0 5 0;
#X connect 5 0 6 0;
#X connect 5 1 6 1;
#X connect 6 0 8 0;
#X connect 8 0 12 0;
#X connect 9 0 14 0;
#X connect 10 0 13 0;
#X connect 11 1 16 0;
#X connect 11 1 17 0;
#X connect 12 0 13 1;
#X connect 12 1 9 1;
#X connect 13 0 16 0;
#X connect 13 0 17 0;
#X connect 14 0 10 0;
#X connect 15 0 6 0;
#X connect 15 1 27 0;
#X connect 15 2 18 0;
#X connect 15 3 26 0;
#X connect 17 0 1 0;
#X connect 18 0 21 0;
#X connect 19 0 2 0;
#X connect 20 0 19 0;
#X connect 21 0 19 0;
#X connect 21 0 22 0;
#X connect 21 1 19 1;
#X connect 21 1 22 1;
#X connect 22 0 23 0;
#X connect 23 0 24 0;
#X connect 24 0 9 0;
#X connect 25 0 22 0;
#X connect 25 1 20 0;
#X connect 26 0 25 0;
#X connect 28 0 29 0;
#X connect 29 0 20 1;
