#N canvas 273 58 450 300 10;
#X obj 7 9 inlet;
#X obj 7 244 random \$1;
#X msg 66 149 seed \$1;
#X obj 7 267 outlet;
#X obj 286 9 inlet;
#X obj 81 33 loadbang;
#X obj 66 128 *;
#X obj 66 9 r \$2;
#X obj 81 78 t b f;
#X msg 81 100 1;
#X obj 81 56 random 2e+09;
#X connect 0 0 1 0;
#X connect 1 0 3 0;
#X connect 2 0 1 0;
#X connect 4 0 1 1;
#X connect 5 0 10 0;
#X connect 6 0 2 0;
#X connect 7 0 6 0;
#X connect 8 0 9 0;
#X connect 8 1 6 1;
#X connect 9 0 6 0;
#X connect 10 0 8 0;
