#N canvas 272 53 450 300 10;
#X obj 7 9 inlet;
#X obj 7 244 random \$1;
#X msg 66 159 seed \$1;
#X obj 7 267 outlet;
#X obj 286 9 inlet;
#X obj 66 138 *;
#X obj 66 9 r \$2;
#X obj 84 84 t b f;
#X msg 84 106 1;
#X obj 84 36 u_instance-counter \$2;
#X obj 84 58 + 1000;
#X connect 0 0 1 0;
#X connect 1 0 3 0;
#X connect 2 0 1 0;
#X connect 4 0 1 1;
#X connect 5 0 2 0;
#X connect 6 0 5 0;
#X connect 7 0 8 0;
#X connect 7 1 5 1;
#X connect 8 0 5 0;
#X connect 9 0 10 0;
#X connect 10 0 7 0;
