#N canvas 181 240 450 300 10;
#X msg 21 42 somethingXfooXbar;
#X obj 21 86 print result;
#X msg 161 42 /road/to/nowhere;
#X obj 161 86 print result2;
#X obj 161 64 u_split /;
#X obj 21 64 u_split X;
#X text 19 13 split a symbol on a particular character;
#X connect 0 0 5 0;
#X connect 2 0 4 0;
#X connect 4 0 3 0;
#X connect 5 0 1 0;
