#N canvas 654 101 348 402 10;
#X obj 41 87 list fromsymbol;
#X obj 62 133 list split 1;
#X obj 143 133 t l;
#X obj 62 200 list append;
#X obj 137 200 t l;
#X obj 41 226 list;
#X obj 41 109 t b a b;
#X obj 41 253 list tosymbol;
#X obj 22 11 inlet;
#X obj 217 92 loadbang;
#X obj 217 114 symbol \$1;
#X obj 22 330 list;
#X obj 124 296 t l;
#X obj 41 275 list;
#X obj 62 155 sel 42;
#X obj 217 136 list fromsymbol;
#X obj 22 33 t b a b;
#X obj 41 62 symbol;
#X obj 41 296 list append;
#X obj 22 351 list trim;
#X obj 22 373 outlet;
#X obj 62 177 t b b b;
#X connect 0 0 6 0;
#X connect 1 0 14 0;
#X connect 1 1 2 0;
#X connect 2 0 1 0;
#X connect 3 0 4 0;
#X connect 3 0 5 1;
#X connect 4 0 3 1;
#X connect 5 0 7 0;
#X connect 6 0 5 0;
#X connect 6 1 1 0;
#X connect 6 2 3 1;
#X connect 7 0 13 0;
#X connect 8 0 16 0;
#X connect 9 0 10 0;
#X connect 10 0 15 0;
#X connect 11 0 19 0;
#X connect 12 0 18 1;
#X connect 13 0 18 0;
#X connect 14 0 21 0;
#X connect 14 1 3 0;
#X connect 15 0 14 1;
#X connect 16 0 11 0;
#X connect 16 1 17 0;
#X connect 16 2 18 1;
#X connect 17 0 0 0;
#X connect 18 0 12 0;
#X connect 18 0 11 1;
#X connect 19 0 20 0;
#X connect 21 0 5 1;
#X connect 21 1 5 0;
#X connect 21 2 3 1;
