#N canvas 322 261 450 300 10;
#X text 9 8 map table to multiple ui elements;
#N canvas 654 328 450 300 \$0/connectors 0;
#X restore 12 77 pd \$0/connectors;
#N canvas 97 84 450 569 init 0;
#X msg 12 31 bang;
#X obj 12 9 loadbang;
#X obj 31 75 \$0;
#X msg 31 97 \; pd-\$1/connectors clear \;;
#X obj 12 202 until;
#X obj 12 53 t b b b;
#X obj 12 224 f;
#X obj 42 224 + 1;
#X msg 51 202 0;
#X obj 12 180 t f b b;
#X obj 86 202 \$0;
#X obj 12 246 t f f;
#X obj 27 136 u_default \$1 16;
#X obj 12 158 16;
#X obj 12 290 pack f f f;
#X obj 12 312 list append \$2;
#X obj 12 334 list append \$3;
#X obj 12 356 list append \$4;
#X obj 12 378 list append \$5;
#X obj 39 268 * 30;
#X obj 12 400 list append \$1;
#X msg 12 420 \; pd-\$3/connectors obj 10 \$2 u_tableconnect \$6 \$7
\$1/\$4 \$1/\$5 \$1 \$8;
#X connect 0 0 5 0;
#X connect 1 0 0 0;
#X connect 2 0 3 0;
#X connect 4 0 6 0;
#X connect 5 0 13 0;
#X connect 5 1 2 0;
#X connect 6 0 7 0;
#X connect 6 0 11 0;
#X connect 7 0 6 1;
#X connect 8 0 6 1;
#X connect 9 0 4 0;
#X connect 9 1 8 0;
#X connect 9 2 10 0;
#X connect 10 0 14 2;
#X connect 11 0 14 0;
#X connect 11 1 19 0;
#X connect 12 0 13 1;
#X connect 13 0 9 0;
#X connect 14 0 15 0;
#X connect 15 0 16 0;
#X connect 16 0 17 0;
#X connect 17 0 18 0;
#X connect 18 0 20 0;
#X connect 19 0 14 1;
#X connect 20 0 21 0;
#X restore 12 55 pd init;
#X text 10 26 args: length receive_basename send_basename tablename_receive
table_send;
