#N canvas 651 179 450 300 10;
#X obj 12 12 inlet;
#X obj 29 136 until;
#X obj 29 158 f;
#X obj 59 158 + 1;
#X msg 46 105 0;
#X obj 29 180 tabread \$1;
#X obj 29 202 list prepend;
#X obj 119 202 t l;
#X obj 12 224 list;
#X obj 12 246 outlet;
#X obj 29 55 symbol \$1;
#X obj 29 75 expr size("\$1");
#X obj 12 34 t b b b b;
#X connect 0 0 12 0;
#X connect 1 0 2 0;
#X connect 2 0 3 0;
#X connect 2 0 5 0;
#X connect 3 0 2 1;
#X connect 4 0 2 1;
#X connect 5 0 6 0;
#X connect 6 0 7 0;
#X connect 6 0 8 1;
#X connect 7 0 6 1;
#X connect 8 0 9 0;
#X connect 10 0 11 0;
#X connect 11 0 1 0;
#X connect 12 0 8 0;
#X connect 12 1 10 0;
#X connect 12 2 4 0;
#X connect 12 3 6 1;
