#N canvas 777 218 450 438 10;
#X obj 121 319 t f f;
#X obj 133 343 f;
#X obj 121 231 t a b b;
#X obj 149 296 t b b b;
#X obj 168 319 f;
#X obj 196 319 + 1;
#X obj 191 231 expr 60000 / $f1;
#X obj 16 20 inlet tick;
#X obj 121 401 outlet;
#X obj 16 42 route bpm multiple;
#X obj 191 252 / 1;
#X obj 121 297 * 1;
#X obj 133 367 + 0;
#X obj 149 274 delay 1e+08;
#X obj 191 110 loadbang;
#X obj 191 132 \$1;
#X obj 7 75 loadbang;
#X obj 7 97 \$2;
#X msg 191 176 180;
#X msg 7 141 1;
#X obj 191 154 sel 0;
#X obj 7 119 sel 0;
#X obj 191 208 f;
#X msg 160 252 0;
#X obj 68 167 t b f f;
#X obj 68 189 t b b;
#X connect 0 0 8 0;
#X connect 0 1 1 1;
#X connect 1 0 12 0;
#X connect 2 0 11 0;
#X connect 2 1 13 0;
#X connect 2 2 23 0;
#X connect 3 0 1 0;
#X connect 3 1 4 0;
#X connect 3 2 13 0;
#X connect 4 0 5 0;
#X connect 4 0 12 1;
#X connect 5 0 4 1;
#X connect 6 0 10 0;
#X connect 7 0 9 0;
#X connect 9 0 22 0;
#X connect 9 1 24 0;
#X connect 9 2 2 0;
#X connect 10 0 13 1;
#X connect 11 0 0 0;
#X connect 12 0 8 0;
#X connect 13 0 3 0;
#X connect 14 0 15 0;
#X connect 15 0 20 0;
#X connect 16 0 17 0;
#X connect 17 0 21 0;
#X connect 18 0 22 0;
#X connect 19 0 24 0;
#X connect 20 0 18 0;
#X connect 20 1 22 0;
#X connect 21 0 19 0;
#X connect 21 1 24 0;
#X connect 22 0 6 0;
#X connect 23 0 4 0;
#X connect 24 0 25 0;
#X connect 24 1 11 1;
#X connect 24 2 10 1;
#X connect 25 0 11 0;
#X connect 25 1 22 0;
