#N canvas 466 307 450 300 10;
#X msg 27 133 bang;
#X obj 27 182 nbx 10 14 -1e+37 1e+37 0 0 empty empty empty 0 -8 0 10
-262144 -1 -1 315092 256;
#X text 62 158 <- takes 100 milliseconds to settle;
#X obj 27 111 loadbang;
#X msg 313 129 bang;
#X obj 313 178 nbx 10 14 -1e+37 1e+37 0 0 empty empty empty 0 -8 0
10 -262144 -1 -1 4.64047e+06 256;
#X obj 313 107 loadbang;
#X obj 27 158 u_uid;
#X obj 313 154 u_uid;
#X text 24 11 uid uses two sources of entropy to create a random ID
with a high probability of being different every time it is banged
or even loadbanged. good for differentiating nodes on a network. not
a uuid4 replacement but maybe good enough.;
#X connect 0 0 7 0;
#X connect 3 0 0 0;
#X connect 4 0 8 0;
#X connect 6 0 4 0;
#X connect 7 0 1 0;
#X connect 8 0 5 0;
